<svg width="428" height="290" viewBox="0 0 428 290" fill="none" xmlns="http://www.w3.org/2000/svg">
<path d="M85.5992 153.5H49.6992V252.8H85.5992V153.5Z" fill="#E1E9FF"/>
<path d="M127.9 124.5H92V252.7H127.9V124.5Z" fill="#E1E9FF"/>
<path d="M297 63.8H261.1V252.7H297V63.8Z" fill="#E1E9FF"/>
<path d="M339.298 32.1H303.398V252.7H339.298V32.1Z" fill="#E1E9FF"/>
<path d="M170.199 103.8H134.299V252.7H170.199V103.8Z" fill="#E1E9FF"/>
<path d="M254.798 103.8H218.898V252.7H254.798V103.8Z" fill="#E1E9FF"/>
<path d="M212.5 83.1H176.6V252.7H212.5V83.1Z" fill="#E1E9FF"/>
<path d="M310.299 162.6C314.899 165.9 319.499 170.1 323.799 175L325.199 188.5L329.099 181.5C332.399 186 345.499 210.5 346.199 224.1C347.299 247 342.999 249.1 342.999 249.1C328.599 240.6 318.199 222.2 314.399 210.7L322.199 211.2L312.799 204.8C309.399 191.9 307.499 172.4 310.299 162.6Z" fill="url(#paint0_linear)"/>
<path opacity="0.2" d="M315.4 175.4C316 176.9 316.7 178.4 317.3 179.9L319.2 184.4C320.5 187.4 321.7 190.5 322.9 193.5C325.4 199.6 327.8 205.7 330.2 211.7L333.8 220.8L335.6 225.4L336.5 227.7L337.3 230C338.2 232.5 342.6 245.5 343.5 248L342.8 249C342.2 247.5 338.3 236.6 337.7 235.1L335.9 230.5C335.3 229 334.7 227.4 334.1 225.9L332.4 221.3C331.3 218.2 330.2 215.1 329 212.1C326.7 206 324.5 199.8 322.1 193.7C319.8 187.6 317.5 181.5 315.1 175.4H315.4Z" fill="url(#paint1_linear)"/>
<path d="M365.1 123.8C368.5 130.7 371.4 138.6 373.4 147.2L375.6 158.3C376.8 165.8 377 203.5 369.2 220.3C356.1 248.5 349.6 248.3 349.6 248.3C337.6 229 336.7 200.3 339.5 184.1L348.5 189.7L341.3 176.2C345.6 158.5 355.6 133.8 365.1 123.8Z" fill="url(#paint2_linear)"/>
<path opacity="0.2" d="M363.2 142.4C363 144.6 362.9 146.8 362.7 149L362.1 155.6C361.7 160 361.3 164.4 360.9 168.9C360 177.7 359.1 186.6 358.1 195.4L356.7 208.7L355.9 215.3L355.5 218.6L355 221.9C354.5 225.5 351.6 243.9 351.1 247.5L349.6 248.2C349.8 246 352.1 230.4 352.3 228.3L353 221.7C353.3 219.5 353.5 217.3 353.8 215.1L354.7 208.5C355.3 204.1 355.9 199.7 356.5 195.3C357.7 186.5 358.8 177.7 359.9 168.9C361 160.1 362.1 151.3 363 142.4H363.2Z" fill="url(#paint3_linear)"/>
<path d="M411.799 209.3C411.599 209.6 411.299 209.9 411.099 210.3C411.299 209.6 411.799 208.4 412.499 207.2C410.699 209.9 409.199 212.6 408.099 215.4C407.999 216.4 407.899 217.2 407.699 217.9C408.699 215 409.999 212.1 411.799 209.3Z" fill="#E1E9FF"/>
<path d="M397.399 251.7C399.099 248 400.299 244.4 401.299 240.9C400.899 240.4 401.299 239.3 402.099 238C402.599 235.9 403.099 233.9 403.599 231.9C403.999 230.1 404.499 228.2 404.999 226.4C404.999 226.5 404.899 226.6 404.899 226.8C404.499 226.3 404.899 225.2 405.699 223.9C406.199 222.2 406.699 220.6 407.299 219C407.099 219.5 406.799 219.8 406.399 219.8C406.699 219.3 406.799 218.9 406.899 218.4C405.299 222.8 404.199 227.2 403.099 231.8C403.099 231.9 402.999 232.1 402.999 232.2C403.099 233.8 402.899 234.9 402.299 235.1C401.299 239.1 400.199 243.1 398.699 247.2C398.699 248.2 398.399 248.9 397.999 249.1C397.499 250.4 396.899 251.6 396.299 252.9H396.499C396.799 252.4 396.999 252.1 397.399 251.7Z" fill="#E1E9FF"/>
<path d="M417.399 201.4C417.499 201.5 417.499 201.7 417.399 201.8C415.099 204.2 413.299 206.7 411.799 209.2C414.199 206 418.099 207.2 422.399 204.1C426.799 200.9 428.099 197.4 426.699 196.2C425.599 195.3 422.799 195.2 418.599 199C415.799 201.5 413.799 204.6 412.499 207C413.799 205.1 415.299 203.2 416.999 201.3C417.099 201.4 417.299 201.3 417.399 201.4Z" fill="#E1E9FF"/>
<path d="M411.8 209.3C413.3 206.8 415.2 204.3 417.4 201.9C417.5 201.8 417.5 201.6 417.4 201.5C417.3 201.4 417.1 201.4 417 201.5C415.3 203.4 413.8 205.3 412.5 207.2C411.8 208.5 411.4 209.6 411.1 210.3C411.3 209.9 411.5 209.6 411.8 209.3Z" fill="#E1E9FF"/>
<path d="M411.8 209.3C413.3 206.8 415.2 204.3 417.4 201.9C417.5 201.8 417.5 201.6 417.4 201.5C417.3 201.4 417.1 201.4 417 201.5C415.3 203.4 413.8 205.3 412.5 207.2C411.8 208.5 411.4 209.6 411.1 210.3C411.3 209.9 411.5 209.6 411.8 209.3Z" fill="#E1E9FF"/>
<path d="M416.998 221.5C420.898 219.1 422.398 215.5 421.198 214.1C420.098 212.6 417.398 212.8 412.898 216.3C409.998 218.5 407.098 221.5 405.598 223.8C405.398 224.7 405.098 225.5 404.898 226.4C406.298 222.5 412.398 224.5 416.998 221.5Z" fill="#E1E9FF"/>
<path d="M404.899 226.6C404.899 226.5 404.999 226.4 404.999 226.2C405.199 225.3 405.499 224.5 405.699 223.6C404.899 225 404.499 226.1 404.899 226.6Z" fill="#E1E9FF"/>
<path d="M404.899 226.6C404.899 226.5 404.999 226.4 404.999 226.2C405.199 225.3 405.499 224.5 405.699 223.6C404.899 225 404.499 226.1 404.899 226.6Z" fill="#E1E9FF"/>
<path d="M401.299 240.8C402.199 236.5 408.599 238.7 413.399 235.7C417.299 233.3 418.799 229.7 417.599 228.3C416.499 226.8 413.799 227 409.299 230.5C406.399 232.7 403.499 235.7 401.999 238C401.899 238.9 401.599 239.9 401.299 240.8Z" fill="#E1E9FF"/>
<path d="M401.299 240.8C401.599 239.8 401.8 238.9 402.1 237.9C401.3 239.2 400.899 240.3 401.299 240.8Z" fill="#E1E9FF"/>
<path d="M401.299 240.8C401.599 239.8 401.8 238.9 402.1 237.9C401.3 239.2 400.899 240.3 401.299 240.8Z" fill="#E1E9FF"/>
<path d="M397.399 252.7C399.899 251.1 404.699 253.3 409.099 251.6C413.399 250 415.499 246.8 414.699 245.2C413.899 243.5 411.299 243.2 406.099 245.7C402.699 247.3 399.099 249.8 397.299 251.8C397.099 252.2 396.999 252.5 396.799 252.9H397.399V252.7Z" fill="#E1E9FF"/>
<path d="M396.9 252.7C397.1 252.3 397.2 252 397.4 251.6C397 252 396.8 252.3 396.6 252.7H396.9Z" fill="#E1E9FF"/>
<path d="M396.9 252.7C397.1 252.3 397.2 252 397.4 251.6C397 252 396.8 252.3 396.6 252.7H396.9Z" fill="#E1E9FF"/>
<path d="M407.599 217.9C407.499 218.2 407.399 218.5 407.299 218.8C407.399 218.5 407.499 218.2 407.599 217.9Z" fill="#E1E9FF"/>
<path d="M407.7 206.5C406.8 200.9 405 199 403.1 199.2C401.3 199.5 400 203.1 401.1 207.5C402.3 212.3 407.2 215 406.9 218.1C407.2 217.1 407.6 216.2 408 215.2C408.3 212.8 408.2 209.4 407.7 206.5Z" fill="#E1E9FF"/>
<path d="M406.398 219.6C406.698 219.5 406.998 219.3 407.298 218.8C407.398 218.5 407.498 218.2 407.598 217.9C407.798 217.2 407.898 216.3 407.998 215.4C407.598 216.3 407.198 217.3 406.898 218.3C406.898 218.7 406.698 219.1 406.398 219.6Z" fill="#E1E9FF"/>
<path d="M406.398 219.6C406.698 219.5 406.998 219.3 407.298 218.8C407.398 218.5 407.498 218.2 407.598 217.9C407.798 217.2 407.898 216.3 407.998 215.4C407.598 216.3 407.198 217.3 406.898 218.3C406.898 218.7 406.698 219.1 406.398 219.6Z" fill="#E1E9FF"/>
<path d="M400.398 222C398.198 216.8 395.898 215.3 394.198 216.1C392.498 216.8 392.098 220.6 394.198 224.7C396.898 229.7 403.498 230.9 402.298 235.1C402.498 234.1 402.798 233.2 402.998 232.2C402.898 229.3 401.798 225.3 400.398 222Z" fill="#E1E9FF"/>
<path d="M402.999 232C402.799 233 402.499 233.9 402.299 234.9C402.899 234.7 403.099 233.6 402.999 232Z" fill="#E1E9FF"/>
<path d="M402.999 232C402.799 233 402.499 233.9 402.299 234.9C402.899 234.7 403.099 233.6 402.999 232Z" fill="#E1E9FF"/>
<path d="M396 235.9C393.8 230.7 391.5 229.2 389.8 230C388.1 230.7 387.7 234.5 389.8 238.6C392.5 243.6 399.1 244.8 397.9 249C398.2 248.4 398.4 247.7 398.6 247.1C398.8 244.4 397.6 239.7 396 235.9Z" fill="#E1E9FF"/>
<path d="M398.7 247C398.5 247.6 398.2 248.3 398 248.9C398.5 248.8 398.7 248 398.7 247Z" fill="#E1E9FF"/>
<path d="M398.7 247C398.5 247.6 398.2 248.3 398 248.9C398.5 248.8 398.7 248 398.7 247Z" fill="#E1E9FF"/>
<path d="M390.599 248.2C388.799 242.8 386.699 241.2 384.899 241.8C383.099 242.4 382.399 246.2 384.299 250.3C384.699 251.2 385.199 252 385.799 252.7H391.799C391.499 251.2 391.099 249.6 390.599 248.2Z" fill="#E1E9FF"/>
<path d="M334.3 225C334.4 222.4 334.1 219.6 335.3 217.3C336.5 215 339.5 213.4 341.8 214.5C343.8 215.4 344.6 217.7 345.7 219.6C347.2 222.1 349.3 224.2 351.9 225.5C353.6 226.4 355.7 226.9 357.3 226C359.6 224.7 359.8 221.6 359.8 219C359.8 214.1 359.7 209.2 359.7 204.3C359.7 201.7 359.7 199 360.5 196.5C361.3 194 363.1 191.7 365.6 191C368.1 190.3 371.2 191.7 371.7 194.3C371.9 195.4 371.7 196.5 371.8 197.6C371.9 198.7 372.4 199.9 373.4 200.2C374.4 200.5 375.5 199.8 376.3 199C379 196.3 380.8 192.9 382.5 189.5C384.2 186.1 385.9 182.6 388.3 179.7C390.7 176.8 394.1 174.5 397.9 174.3C401.7 174.1 405.7 176.4 406.6 180.1C407.6 183.8 405.4 187.6 403.1 190.6C399.6 195.1 395.5 199 390.9 202.3C390.1 202.9 389.2 203.5 388.9 204.5C388.3 206.3 390 208 391.7 208.6C393.7 209.2 395.8 209 397.8 209.3C399.8 209.5 402.1 210.4 402.9 212.4C404 215.1 401.8 217.9 399.5 219.8C395.1 223.5 390 226.4 384.7 228.4C382.8 229.1 380.7 229.7 379.2 231.1C377.6 232.5 376.7 234.8 377.7 236.7C378.6 238.5 381.1 239.1 383.1 238.7C385.1 238.3 386.9 237.2 388.9 236.5C392.5 235.1 397.2 235.4 399.5 238.5C401 240.5 401.2 243.4 400.4 245.8C399.6 248.2 398.1 250.4 396.4 252.3C396.1 252.6 395.9 252.9 395.6 253.2H338.5C335 244.2 334 234.3 334.3 225Z" fill="url(#paint4_linear)"/>
<path opacity="0.74" d="M369.6 219.7C369.6 219.7 369.5 219.3 369.3 218.6C369.2 217.9 369 216.8 368.8 215.5C368.4 212.9 368 209.3 367.6 205.3C367.2 201.3 366.7 197.7 366.3 195.1C366.1 193.8 365.9 192.7 365.8 192C365.7 191.3 365.6 190.9 365.6 190.9C365.6 190.9 365.7 191.3 365.9 192C366.1 192.7 366.3 193.8 366.6 195.1C367.1 197.7 367.6 201.3 368 205.3C368.4 209.2 368.8 212.8 369.1 215.6C369.2 216.8 369.4 217.9 369.4 218.7C369.6 219.3 369.7 219.7 369.6 219.7Z" fill="white"/>
<path opacity="0.74" d="M403.4 213.3C403.4 213.3 402.9 213.4 402.1 213.5C401.2 213.6 400 213.7 398.4 213.9C395.3 214.2 391.1 214.9 386.4 215.8C381.7 216.7 377.6 217.7 374.5 218.5C373 218.9 371.8 219.2 370.9 219.5C370.1 219.7 369.6 219.9 369.6 219.8C369.6 219.8 370 219.6 370.9 219.3C371.7 219 372.9 218.6 374.4 218.2C377.4 217.3 381.6 216.2 386.3 215.3C391 214.4 395.3 213.8 398.4 213.6C400 213.5 401.2 213.4 402.1 213.4C402.9 213.2 403.4 213.2 403.4 213.3Z" fill="white"/>
<path opacity="0.74" d="M352.899 252.7C352.699 252.2 352.399 251.6 352.199 251C350.599 247.1 348.499 241.7 346.199 235.7C343.999 229.7 341.899 224.3 340.399 220.4C339.599 218.5 338.999 217 338.499 215.8C338.299 215.3 338.099 214.9 337.999 214.5C337.899 214.2 337.799 214.1 337.899 214C337.899 214 337.999 214.1 338.099 214.4C338.299 214.7 338.399 215.1 338.699 215.6C339.199 216.7 339.899 218.2 340.699 220.1C342.299 224 344.399 229.4 346.699 235.4C348.899 241.4 350.999 246.8 352.499 250.7C352.799 251.3 352.999 251.9 353.199 252.5H352.899V252.7Z" fill="white"/>
<path opacity="0.74" d="M398.1 243.3C396.9 243.7 395.3 244.2 393.3 244.9C389.2 246.2 383.7 248.1 377.5 250.2C374.8 251.1 372.3 252 369.9 252.8H368.5C371.2 251.9 374.2 250.9 377.4 249.8C383.6 247.7 389.2 245.8 393.2 244.6C395.2 244 396.9 243.5 398 243.2C398.5 243.1 399 242.9 399.3 242.8C399.6 242.7 399.8 242.7 399.8 242.7C399.8 242.7 399.7 242.8 399.4 242.9C399.1 242.9 398.6 243.1 398.1 243.3Z" fill="white"/>
<path opacity="0.74" d="M402.7 176.5C402.5 176.7 402.2 176.9 401.9 177.2C401.2 177.8 400.2 178.7 398.9 179.9C396.4 182.3 392.8 185.9 388.9 190.8C387 193.2 384.9 196 382.8 199C380.7 202 378.5 205.2 376.2 208.7C374 212.2 371.8 215.9 369.8 219.9C368.8 221.9 367.9 224 367 226.2C366.1 228.3 365.2 230.5 364.2 232.7C361.3 239.6 358.7 246.3 356.6 252.7H356.1C358.2 246.2 360.8 239.4 363.8 232.5C364.7 230.3 365.7 228.1 366.6 226C367.5 223.9 368.4 221.7 369.4 219.7C371.4 215.6 373.7 211.9 375.9 208.4C378.1 204.9 380.4 201.7 382.5 198.7C384.6 195.7 386.7 192.9 388.6 190.5C392.5 185.6 396.1 182.1 398.7 179.7C400 178.5 401 177.6 401.7 177.1C402.2 176.8 402.5 176.6 402.7 176.5C402.9 176.3 402.9 176.2 403 176.2C403 176.2 402.9 176.3 402.7 176.5Z" fill="white"/>
<path d="M209.7 111.1H209.2C209.8 101.6 214.2 95.1 215.7 89.9C217.3 84.1 209.9 86.8 208.3 87.8C204.8 89.9 200.1 96.5 192.1 91.8C183.1 86.5 170.6 84.3 173.5 90.3C177.8 99 179.7 106.9 180.5 111.2H180.1C178.2 146.4 119.1 173.7 119.1 216.5C119.1 260.1 152.2 289.4 194.4 289.4C236.6 289.4 269.7 260.1 269.7 216.5C269.8 173.6 211.6 146.3 209.7 111.1Z" fill="url(#paint5_linear)"/>
<g opacity="0.2">
<path opacity="0.2" d="M179.301 91.7C184.401 94.7 188.101 93.1 191.001 91.1C183.001 86.7 172.901 84.9 173.101 88.8C175.201 89.6 177.301 90.6 179.301 91.7Z" fill="white"/>
<path opacity="0.2" d="M209.701 111.1H209.201C209.801 101.6 214.201 95.1 215.701 89.9C217.301 84.1 209.901 86.8 208.301 87.8C206.601 88.8 204.601 90.9 202.101 92.2C200.201 97 196.901 103 196.401 111.1H196.901C198.801 146.3 257.101 173.6 257.101 216.4C257.101 257.7 227.301 286.2 188.201 289C190.301 289.2 192.501 289.2 194.601 289.2C236.801 289.2 269.901 259.9 269.901 216.3C269.801 173.6 211.601 146.3 209.701 111.1Z" fill="white"/>
</g>
<path d="M209.2 112.9H180C179 112.9 178.1 112.1 178.1 111C178.1 110 178.9 109.1 180 109.1H209.2C210.2 109.1 211.1 109.9 211.1 111C211.1 112 210.3 112.9 209.2 112.9Z" fill="url(#paint6_linear)"/>
<path d="M209.2 116.1H180C179 116.1 178.1 115.3 178.1 114.2C178.1 113.2 178.9 112.3 180 112.3H209.2C210.2 112.3 211.1 113.1 211.1 114.2C211.1 115.2 210.3 116.1 209.2 116.1Z" fill="url(#paint7_linear)"/>
<g opacity="0.3">
<path opacity="0.6" d="M211.799 231.7C208.999 234.6 205.299 236.4 200.599 237.3V241C200.599 242.6 200.099 243.8 199.099 244.8C198.099 245.8 196.899 246.2 195.299 246.2C193.699 246.2 192.499 245.7 191.499 244.8C190.499 243.8 189.999 242.6 189.999 241V237.6C184.399 236.9 179.699 235.3 175.699 232.7C174.799 232.1 174.199 231.5 173.799 230.8C173.399 230.1 173.199 229.2 173.199 228C173.199 226.5 173.599 225.2 174.499 224.1C175.399 223 176.399 222.4 177.599 222.4C178.199 222.4 178.799 222.5 179.399 222.7C179.999 222.9 180.799 223.3 181.699 223.8C183.899 225 185.999 225.9 187.899 226.4C189.799 226.9 191.799 227.2 193.999 227.2C196.699 227.2 198.699 226.8 199.999 225.9C201.399 225 202.099 223.7 202.099 222C202.099 220.9 201.699 220.1 200.899 219.4C200.099 218.7 198.999 218.2 197.799 217.8C196.599 217.4 194.799 216.9 192.399 216.3C188.599 215.3 185.599 214.4 183.199 213.4C180.799 212.4 178.699 210.9 176.999 208.8C175.199 206.7 174.399 203.9 174.399 200.4C174.399 196.4 175.799 192.9 178.599 190C181.399 187 185.099 185.1 189.699 184.1V180.3C189.699 178.8 190.199 177.6 191.199 176.6C192.199 175.6 193.499 175.1 194.999 175.1C196.599 175.1 197.799 175.6 198.799 176.5C199.799 177.5 200.299 178.7 200.299 180.3V183.8C204.499 184.5 208.499 186 212.499 188.5C213.399 189.1 213.999 189.8 214.399 190.5C214.799 191.2 214.999 192.1 214.999 193.2C214.999 194.7 214.499 196 213.599 197.1C212.699 198.2 211.599 198.8 210.399 198.8C209.799 198.8 209.199 198.7 208.699 198.5C208.099 198.3 207.299 197.9 206.299 197.4C205.899 197.2 205.199 196.8 203.999 196.2C202.799 195.6 201.499 195.1 200.099 194.7C198.699 194.3 197.299 194.1 195.699 194.1C193.399 194.1 191.599 194.6 190.199 195.6C188.799 196.6 188.099 197.9 188.099 199.5C188.099 201.1 188.899 202.3 190.499 203.1C192.099 203.9 194.599 204.7 198.099 205.5C201.799 206.4 204.799 207.3 207.199 208.2C209.599 209.2 211.599 210.7 213.399 212.8C215.099 214.9 215.999 217.7 215.999 221.3C215.999 225.4 214.599 228.9 211.799 231.7Z" fill="white"/>
</g>
<g filter="url(#filter0_d)">
<path d="M413.6 14.4V98.2C413.6 102.9 410.4 106.6 406.5 106.6H284.1C280.2 106.6 277 102.9 277 98.2V14.4C277 9.7 280.2 6 284.1 6H406.5C410.4 6 413.6 9.7 413.6 14.4Z" fill="white"/>
<path d="M317.001 67.2H301.701V93.3H317.001V67.2Z" fill="url(#paint8_linear)"/>
<path d="M340.902 50.2H325.602V93.3H340.902V50.2Z" fill="url(#paint9_linear)"/>
<path d="M364.902 32.7H349.602V93.3H364.902V32.7Z" fill="url(#paint10_linear)"/>
<path d="M388.902 19.3H373.602V93.3H388.902V19.3Z" fill="url(#paint11_linear)"/>
<path d="M288.101 17.8C289.647 17.8 290.901 16.5464 290.901 15C290.901 13.4536 289.647 12.2 288.101 12.2C286.554 12.2 285.301 13.4536 285.301 15C285.301 16.5464 286.554 17.8 288.101 17.8Z" fill="url(#paint12_linear)"/>
<path d="M298.7 17.8C300.247 17.8 301.5 16.5464 301.5 15C301.5 13.4536 300.247 12.2 298.7 12.2C297.154 12.2 295.9 13.4536 295.9 15C295.9 16.5464 297.154 17.8 298.7 17.8Z" fill="url(#paint13_linear)"/>
<path d="M312 15C312 16.5 310.8 17.8 309.2 17.8C307.7 17.8 306.4 16.6 306.4 15C306.4 13.4 307.6 12.2 309.2 12.2C310.8 12.3 312 13.5 312 15Z" fill="url(#paint14_linear)"/>
</g>
<path d="M13.4992 74.6H147.799C151.299 74.6 154.099 77.9 154.099 82.1V109.3L163.999 114.2L154.099 119.1V125.9C154.099 130.1 151.299 133.4 147.799 133.4H13.4992C9.99922 133.4 7.19922 130.1 7.19922 125.9V81.9C7.19922 77.9 9.99922 74.6 13.4992 74.6Z" fill="url(#paint15_linear)"/>
<g opacity="0.3">
<path opacity="0.6" d="M128.398 86.4H23.3984V91.5H128.398V86.4Z" fill="white"/>
<path opacity="0.6" d="M87.4984 96.5H23.3984V101.6H87.4984V96.5Z" fill="white"/>
<path opacity="0.6" d="M114.498 106.5H23.3984V111.6H114.498V106.5Z" fill="white"/>
<path opacity="0.6" d="M69.8984 116.5H23.3984V121.6H69.8984V116.5Z" fill="white"/>
</g>
<g filter="url(#filter1_d)">
<path d="M100.4 173.5V228.4C100.4 231.5 98.3004 233.9 95.7004 233.9H15.6004C13.0004 233.9 10.9004 231.4 10.9004 228.4V173.5C10.9004 170.4 13.0004 168 15.6004 168H95.8004C98.4004 167.9 100.4 170.4 100.4 173.5Z" fill="white"/>
<path d="M20.1 173.9C20.1 174.9 19.3 175.7 18.3 175.7C17.3 175.7 16.5 174.9 16.5 173.9C16.5 172.9 17.3 172.1 18.3 172.1C19.3 172.1 20.1 172.9 20.1 173.9Z" fill="url(#paint16_linear)"/>
<path d="M27.0004 173.9C27.0004 174.9 26.2004 175.7 25.2004 175.7C24.2004 175.7 23.4004 174.9 23.4004 173.9C23.4004 172.9 24.2004 172.1 25.2004 172.1C26.2004 172.1 27.0004 172.9 27.0004 173.9Z" fill="url(#paint17_linear)"/>
<path d="M33.9008 173.9C33.9008 174.9 33.1008 175.7 32.1008 175.7C31.1008 175.7 30.3008 174.9 30.3008 173.9C30.3008 172.9 31.1008 172.1 32.1008 172.1C33.1008 172.1 33.9008 172.9 33.9008 173.9Z" fill="url(#paint18_linear)"/>
<path d="M73.0996 181.5V186.6H83.5996L67.2996 202.9L58.2996 193.9L43.1996 209L35.2996 201L19.5996 216.7L23.1996 220.3L35.2996 208.2L43.1996 216.2L58.2996 201.1L67.2996 210L86.6996 190.6V200.2H91.7996V181.5H73.0996Z" fill="url(#paint19_linear)"/>
</g>
<defs>
<filter id="filter0_d" x="267" y="0" width="156.6" height="120.6" filterUnits="userSpaceOnUse" color-interpolation-filters="sRGB">
<feFlood flood-opacity="0" result="BackgroundImageFix"/>
<feColorMatrix in="SourceAlpha" type="matrix" values="0 0 0 0 0 0 0 0 0 0 0 0 0 0 0 0 0 0 127 0"/>
<feOffset dy="4"/>
<feGaussianBlur stdDeviation="5"/>
<feColorMatrix type="matrix" values="0 0 0 0 0 0 0 0 0 0 0 0 0 0 0 0 0 0 0.1 0"/>
<feBlend mode="normal" in2="BackgroundImageFix" result="effect1_dropShadow"/>
<feBlend mode="normal" in="SourceGraphic" in2="effect1_dropShadow" result="shape"/>
</filter>
<filter id="filter1_d" x="0.900391" y="161.997" width="109.5" height="85.9029" filterUnits="userSpaceOnUse" color-interpolation-filters="sRGB">
<feFlood flood-opacity="0" result="BackgroundImageFix"/>
<feColorMatrix in="SourceAlpha" type="matrix" values="0 0 0 0 0 0 0 0 0 0 0 0 0 0 0 0 0 0 127 0"/>
<feOffset dy="4"/>
<feGaussianBlur stdDeviation="5"/>
<feColorMatrix type="matrix" values="0 0 0 0 0 0 0 0 0 0 0 0 0 0 0 0 0 0 0.1 0"/>
<feBlend mode="normal" in2="BackgroundImageFix" result="effect1_dropShadow"/>
<feBlend mode="normal" in="SourceGraphic" in2="effect1_dropShadow" result="shape"/>
</filter>
<linearGradient id="paint0_linear" x1="371.094" y1="268.112" x2="281.175" y2="142.643" gradientUnits="userSpaceOnUse">
<stop stop-color="#4584FF"/>
<stop offset="0.9246" stop-color="white"/>
</linearGradient>
<linearGradient id="paint1_linear" x1="315.275" y1="212.247" x2="343.573" y2="212.247" gradientUnits="userSpaceOnUse">
<stop stop-color="#4584FF"/>
<stop offset="0.9246" stop-color="white"/>
</linearGradient>
<linearGradient id="paint2_linear" x1="422.983" y1="268.736" x2="307.051" y2="122.662" gradientUnits="userSpaceOnUse">
<stop stop-color="#4584FF"/>
<stop offset="0.9246" stop-color="white"/>
</linearGradient>
<linearGradient id="paint3_linear" x1="349.577" y1="195.346" x2="363.169" y2="195.346" gradientUnits="userSpaceOnUse">
<stop stop-color="#4584FF"/>
<stop offset="0.9246" stop-color="white"/>
</linearGradient>
<linearGradient id="paint4_linear" x1="471.713" y1="304.763" x2="341.869" y2="187.672" gradientUnits="userSpaceOnUse">
<stop stop-color="#4584FF"/>
<stop offset="0.9246" stop-color="white"/>
</linearGradient>
<linearGradient id="paint5_linear" x1="121.876" y1="71.2199" x2="510.45" y2="838.301" gradientUnits="userSpaceOnUse">
<stop offset="0.1495" stop-color="#622AF9"/>
<stop offset="1" stop-color="#001C71"/>
</linearGradient>
<linearGradient id="paint6_linear" x1="178.163" y1="110.994" x2="211.104" y2="110.994" gradientUnits="userSpaceOnUse">
<stop stop-color="#FFDA00"/>
<stop offset="1" stop-color="#FF8300"/>
</linearGradient>
<linearGradient id="paint7_linear" x1="178.163" y1="114.203" x2="211.104" y2="114.203" gradientUnits="userSpaceOnUse">
<stop stop-color="#FFDA00"/>
<stop offset="1" stop-color="#FF8300"/>
</linearGradient>
<linearGradient id="paint8_linear" x1="276.558" y1="10.7816" x2="331.626" y2="127.634" gradientUnits="userSpaceOnUse">
<stop offset="0.0322007" stop-color="#622AF9"/>
<stop offset="1" stop-color="#00E0E2"/>
</linearGradient>
<linearGradient id="paint9_linear" x1="299.46" y1="-0.0114057" x2="354.529" y2="116.841" gradientUnits="userSpaceOnUse">
<stop offset="0.0322007" stop-color="#622AF9"/>
<stop offset="1" stop-color="#00E0E2"/>
</linearGradient>
<linearGradient id="paint10_linear" x1="322.462" y1="-10.8512" x2="377.53" y2="106.001" gradientUnits="userSpaceOnUse">
<stop offset="0.0322007" stop-color="#622AF9"/>
<stop offset="1" stop-color="#00E0E2"/>
</linearGradient>
<linearGradient id="paint11_linear" x1="344.669" y1="-21.3165" x2="399.737" y2="95.5356" gradientUnits="userSpaceOnUse">
<stop offset="0.0322007" stop-color="#622AF9"/>
<stop offset="1" stop-color="#00E0E2"/>
</linearGradient>
<linearGradient id="paint12_linear" x1="284.38" y1="7.095" x2="339.448" y2="123.947" gradientUnits="userSpaceOnUse">
<stop offset="0.0322007" stop-color="#622AF9"/>
<stop offset="1" stop-color="#00E0E2"/>
</linearGradient>
<linearGradient id="paint13_linear" x1="293.024" y1="3.0213" x2="348.092" y2="119.874" gradientUnits="userSpaceOnUse">
<stop offset="0.0322007" stop-color="#622AF9"/>
<stop offset="1" stop-color="#00E0E2"/>
</linearGradient>
<linearGradient id="paint14_linear" x1="301.668" y1="-1.0523" x2="356.736" y2="115.8" gradientUnits="userSpaceOnUse">
<stop offset="0.0322007" stop-color="#622AF9"/>
<stop offset="1" stop-color="#00E0E2"/>
</linearGradient>
<linearGradient id="paint15_linear" x1="-54.7984" y1="0.909286" x2="147.566" y2="154.921" gradientUnits="userSpaceOnUse">
<stop offset="0.0322007" stop-color="#622AF9"/>
<stop offset="1" stop-color="#00E0E2"/>
</linearGradient>
<linearGradient id="paint16_linear" x1="38.5067" y1="159.117" x2="-74.3161" y2="241.496" gradientUnits="userSpaceOnUse">
<stop offset="0.1495" stop-color="#622AF9"/>
<stop offset="1" stop-color="#001C71"/>
</linearGradient>
<linearGradient id="paint17_linear" x1="40.9128" y1="162.412" x2="-71.9101" y2="244.791" gradientUnits="userSpaceOnUse">
<stop offset="0.1495" stop-color="#622AF9"/>
<stop offset="1" stop-color="#001C71"/>
</linearGradient>
<linearGradient id="paint18_linear" x1="43.3189" y1="165.707" x2="-69.5041" y2="248.085" gradientUnits="userSpaceOnUse">
<stop offset="0.1495" stop-color="#622AF9"/>
<stop offset="1" stop-color="#001C71"/>
</linearGradient>
<linearGradient id="paint19_linear" x1="105.288" y1="173.685" x2="3.21043" y2="239.499" gradientUnits="userSpaceOnUse">
<stop offset="0.1495" stop-color="#622AF9"/>
<stop offset="1" stop-color="#001C71"/>
</linearGradient>
</defs>
</svg>
